<?xml version="1.0" encoding="UTF-8" standalone="no"?>
<!-- Created with Inkscape (http://www.inkscape.org/) -->

<svg
   xmlns:dc="http://purl.org/dc/elements/1.1/"
   xmlns:cc="http://creativecommons.org/ns#"
   xmlns:rdf="http://www.w3.org/1999/02/22-rdf-syntax-ns#"
   xmlns:svg="http://www.w3.org/2000/svg"
   xmlns="http://www.w3.org/2000/svg"
   version="1.1"
   width="65"
   height="72"
   id="svg3055">
  <metadata
     id="metadata3061">
    <rdf:RDF>
      <cc:Work
         rdf:about="">
        <dc:format>image/svg+xml</dc:format>
        <dc:type
           rdf:resource="http://purl.org/dc/dcmitype/StillImage" />
        <dc:title></dc:title>
      </cc:Work>
    </rdf:RDF>
  </metadata>
  <defs
     id="defs3059" />
  <g
     transform="translate(-7.8644653,-9.6176696)"
     id="g3189">
    <path
       d="M 22.669064,63.71209 C 12.868858,60.347451 6.8588671,50.903125 8.0529075,40.743709 11.325425,12.899695 57.668763,11.418973 57.801056,39.1542 57.892591,58.344598 41.14131,70.054043 22.669064,63.71209 z M 12.891571,16.795814 c -4.3212635,-3.026731 -2.103392,-7.9057193 2.286287,-5.029492 3.163043,2.072507 5.108301,2.006202 16.497686,-0.562328 11.162991,-2.517473 17.513561,-2.0380074 21.762257,1.643043 4.362549,3.779692 1.858813,5.291188 -5.125617,3.094316 -5.731943,-1.802918 -9.443201,-1.586781 -17.428066,1.014975 -5.805724,1.891714 -15.182005,1.808066 -17.992547,-0.160514 z"
       id="path3211"
       style="fill:#d7eae8" />
    <path
       d="M 22.669064,62.457483 C 3.3713794,55.610769 4.5191604,29.853512 24.456578,22.344065 c 15.590384,-5.872134 32.212486,2.52718 32.212486,16.277292 0,18.875807 -16.122763,30.178872 -34,23.836126 z M 13.643971,15.531009 c -2.799351,-2.269349 -1.922905,-4.251619 1.057004,-2.390636 2.627703,1.641028 9.417708,1.509141 15.37702,-0.298679 9.220923,-2.797264 23.591069,-1.474625 23.591069,2.171339 0,1.662371 0.01867,1.663061 -4.345757,-0.160515 -4.512068,-1.885262 -9.977804,-1.908872 -16.089573,-0.0695 -9.041533,2.721101 -16.790841,3.01699 -19.589763,0.74799 z"
       id="path3209"
       style="fill:#b6cecd" />
    <path
       d="M 24.66259,62.418177 C 13.334321,58.972273 7.5840246,48.809482 10.608093,37.578947 16.627835,15.223336 55.778562,16.187283 55.99885,38.696532 56.167338,55.912789 41.006329,67.389719 24.66259,62.418177 z"
       id="path3207"
       style="fill:#a0cbb5" />
    <path
       d="M 24.66259,62.418177 C 4.7331266,56.355908 4.7673716,30.795255 24.714952,23.335357 44.597149,15.899911 61.160949,30.741743 53.750657,49.352518 49.597449,59.783205 36.031843,65.876548 24.66259,62.418177 z"
       id="path3205"
       style="fill:#93b9ce" />
    <path
       d="M 23.169064,61.335801 C 4.723532,54.253554 6.4985218,30.311617 26.021884,22.855577 c 5.80495,-2.216931 14.508367,-1.634848 20.385357,1.363369 14.804379,7.552631 10.428258,33.874897 -6.155894,37.027559 -10.595694,2.01425 -12.049002,2.021847 -17.082283,0.0893 z m 6.869715,-10.233283 c 0.869994,-3.246371 0.842799,-3.308383 -1.529142,-3.487056 -5.170006,-0.389445 -7.357536,2.751545 -3.090573,4.437634 3.910717,1.545317 3.953182,1.536579 4.619715,-0.950578 z"
       id="path3203"
       style="fill:#8aaeb0" />
    <path
       d="m 22.169064,59.937155 c -5.38389,-2.476752 -10.033838,-7.751092 -9.06329,-10.2803 0.335673,-0.874748 -0.128458,-2.089671 -1.057956,-2.769336 -2.3878295,-1.746024 -0.172079,-10.34347 3.975195,-15.424365 5.333284,-6.533893 9.053951,-8.511802 16.83916,-8.951705 19.110493,-1.07984 27.643987,12.51893 18.770552,29.912299 -2.699723,5.291895 -5.247644,6.720286 -15.071236,8.449093 -9.983622,1.75697 -8.301487,1.86633 -14.392425,-0.935686 z m 7.869715,-8.834637 c 0.869994,-3.246371 0.842799,-3.308383 -1.529142,-3.487056 -5.170006,-0.389445 -7.357536,2.751545 -3.090573,4.437634 3.910717,1.545317 3.953182,1.536579 4.619715,-0.950578 z"
       id="path3201"
       style="fill:#6ea9cc" />
    <path
       d="m 22.169064,59.937155 c -4.709277,-2.16641 -9.499999,-7.053032 -9.499999,-9.690167 0,-0.652584 1.142064,0.04579 2.537919,1.551945 1.606307,1.733235 3.127701,2.51214 4.144617,2.121912 0.883684,-0.339101 2.449454,0.146135 3.479487,1.078303 2.629727,2.37987 16.682685,2.546663 18.153172,0.215458 1.488507,-2.359774 0.256869,-4.47587 -4.267425,-7.331932 -3.23194,-2.040233 -4.047771,-3.147354 -4.047771,-5.49301 0,-1.615771 -0.5625,-3.297626 -1.25,-3.737456 -0.6875,-0.439829 -1.25,-1.47469 -1.25,-2.29969 0,-0.966439 -0.775074,-1.392995 -2.178964,-1.199176 -1.651767,0.22804 -2.586643,-0.558294 -3.863942,-3.25 -1.823596,-3.842945 -2.427695,-4.180222 -4.240426,-2.367491 -0.650834,0.650834 -1.445586,0.921082 -1.766116,0.600551 -2.548054,-2.548054 8.775316,-7.789862 16.76733,-7.761922 17.754405,0.06207 25.214622,13.448967 16.745779,30.049268 -2.699723,5.291895 -5.247644,6.720286 -15.071236,8.449093 -9.983622,1.75697 -8.301487,1.86633 -14.392425,-0.935686 z M 11.075512,45.969322 c -0.788402,-2.054545 2.212656,-12.055798 4.083455,-13.608424 2.096331,-1.739801 1.88547,-0.351814 -0.543655,3.578595 -1.521266,2.461459 -1.886895,4.21248 -1.410194,6.753513 0.662338,3.530571 -1.031851,6.137018 -2.129606,3.276316 z m 4.593553,-5.057787 c 0,-1.407459 0.449999,-2.559017 0.999999,-2.559017 0.550001,0 1,0.873442 1,1.940983 0,1.067541 -0.449999,2.219098 -1,2.559017 -0.567157,0.350523 -0.999999,-0.489616 -0.999999,-1.940983 z"
       id="path3199"
       style="fill:#669dab" />
    <path
       d="m 43.669064,54.586493 c 0,-3.416125 -0.464548,-4.070144 -5,-7.039309 -4.296723,-2.81288 -5,-3.728753 -5,-6.511469 0,-3.970561 -2.443474,-7.683197 -5.056704,-7.683197 -1.068812,0 -1.943296,-0.170044 -1.943296,-0.377876 0,-0.207832 -0.68831,-2.025233 -1.529576,-4.038669 l -1.529577,-3.660792 3.776609,-1.577968 c 7.890616,-3.29691 21.087428,0.367464 25.181772,6.992253 3.875374,6.270487 2.395436,17.979982 -3.057372,24.190386 -4.049684,4.612336 -5.841856,4.522339 -5.841856,-0.293359 z"
       id="path3197"
       style="fill:#358f89" />
    <path
       d="m 43.669064,57.75681 c 0,-0.327639 0.779345,-1.915034 1.731877,-3.527543 1.893881,-3.206084 0.214989,-5.471118 -6.981877,-9.41942 -2.247778,-1.233163 -2.75,-2.197979 -2.75,-5.283009 0,-2.075876 -0.520928,-4.295248 -1.157618,-4.931938 -0.876824,-0.876825 -0.849739,-1.528592 0.111667,-2.687014 3.189722,-3.843381 0.456657,-6.750595 -5.631159,-5.989973 -6.341939,0.792373 -6.707265,-0.623376 -0.674613,-2.614331 8.007035,-2.64256 20.38244,1.126501 24.250951,7.385884 3.875374,6.270487 2.395436,17.979982 -3.057372,24.190386 -2.673984,3.0455 -5.841856,4.605592 -5.841856,2.876958 z"
       id="path3195"
       style="fill:#4e8c71" />
    <path
       d="m 46.669035,53.257506 c -2.9e-5,-2.359956 -3.731249,-6.102502 -8.749971,-8.776531 -1.722622,-0.917832 -2.25,-2.081261 -2.25,-4.963641 0,-2.070649 -0.520928,-4.285744 -1.157618,-4.922434 -0.876824,-0.876825 -0.85537,-1.521806 0.08845,-2.659041 0.77377,-0.932335 0.992912,-2.654044 0.578163,-4.542382 -1.44138,-6.562562 13.225707,-2.322241 16.962509,4.903937 3.150973,6.093311 1.329454,17.210295 -3.542305,21.619177 -1.854789,1.678561 -1.929201,1.65314 -1.929229,-0.659085 z"
       id="path3193"
       style="fill:#228960" />
    <path
       d="m 46.669064,54.616709 c 0,-0.575181 0.890117,-3.007425 1.978038,-5.404987 C 53.599336,38.297979 49.998463,28.7017 39.963651,26.070439 l -5.794587,-1.519417 4.269872,-0.09925 c 11.62982,-0.270332 19.065268,13.016532 13.659328,24.408704 -1.671711,3.52287 -5.4292,7.506697 -5.4292,5.756235 z"
       id="path3191"
       style="fill:#2e7c59" />
  </g>
</svg>
